# xmcd CD database file
#
# Track frame offsets:
#	150
#	17550
#	40350
#	65250
#	85950
#	104550
#	130350
#	149400
#	171900
#
# Disc length: 2528 seconds
#
# Revision: 0
# Processed by: cddbd v1.5.2PL0 Copyright (c) Steve Scherf et al.
# Submitted via: CDex 1.51
#
DISCID=7e09de09
DTITLE=Jon Braman - Sprouting daisies out of my hair
DYEAR=2004
DGENRE=Rhythmic Soul
TTITLE0=One two three
TTITLE1=Daddy
TTITLE2=Tip top of the world
TTITLE3=Family
TTITLE4=Non-hydro
TTITLE5=Gandhi
TTITLE6=Coffee cup
TTITLE7=Groove to mourn
TTITLE8=A little relief
EXTD=YEAR: 2004
EXTT0=
EXTT1=
EXTT2=
EXTT3=
EXTT4=
EXTT5=
EXTT6=
EXTT7=
EXTT8=
PLAYORDER=
